<?xml version="1.0" standalone="no"?>
<!DOCTYPE svg PUBLIC "-//W3C//DTD SVG 20010904//EN"
 "http://www.w3.org/TR/2001/REC-SVG-20010904/DTD/svg10.dtd">
<svg version="1.0" xmlns="http://www.w3.org/2000/svg"
 width="300.000000pt" height="300.000000pt" viewBox="0 0 300.000000 300.000000"
 preserveAspectRatio="xMidYMid meet">
<metadata>
Created by potrace 1.14, written by Peter Selinger 2001-2017
</metadata>
<g transform="translate(0.000000,300.000000) scale(0.100000,-0.100000)"
fill="#000000" stroke="none">
<path d="M1329 2988 c-1 -23 -2 -72 0 -106 1 -32 3 -33 34 -30 31 3 32 2 33
-40 1 -54 4 -52 -111 -67 -217 -27 -456 -114 -644 -235 -79 -51 -82 -52 -101
-35 -18 16 -19 20 -5 35 13 14 10 21 -35 68 -27 29 -53 52 -57 52 -5 0 -21
-12 -38 -28 -16 -15 -57 -50 -90 -77 -33 -28 -73 -62 -90 -77 l-30 -28 52 -52
c45 -45 54 -50 68 -38 14 11 20 10 40 -11 l24 -24 -51 -55 c-139 -153 -256
-388 -304 -610 -19 -92 -26 -339 -11 -440 68 -454 399 -866 851 -1059 210 -89
380 -124 611 -125 198 -1 269 6 415 43 480 120 865 449 1026 878 63 169 79
265 79 463 -1 132 -4 167 -24 260 -40 186 -133 382 -256 538 l-62 78 23 27
c21 24 26 26 44 15 18 -12 25 -7 72 40 l53 52 -30 26 c-17 14 -41 35 -55 47
-76 66 -146 124 -157 131 -8 4 -32 -13 -64 -44 -48 -48 -50 -52 -35 -69 15
-16 14 -19 -7 -39 l-22 -21 -80 55 c-101 70 -273 155 -393 194 -91 29 -262 66
-331 72 -34 3 -35 5 -36 46 -1 45 6 56 40 58 11 0 25 2 30 2 8 2 11 64 6 130
-1 9 -46 12 -191 12 -145 0 -190 -3 -191 -12z m386 -443 c139 -22 328 -85 445
-148 222 -120 418 -320 525 -535 33 -67 77 -190 89 -247 3 -16 8 -43 12 -60 3
-16 8 -88 9 -160 2 -99 -2 -153 -17 -225 -99 -482 -510 -858 -1038 -949 -133
-23 -385 -22 -508 3 -406 82 -741 328 -915 671 -84 165 -118 325 -113 520 7
223 77 423 217 618 181 253 504 451 819 503 19 4 55 9 80 14 51 8 335 5 395
-5z"/>
<path d="M1340 2223 c-267 -42 -505 -179 -659 -380 -121 -158 -189 -424 -157
-610 4 -24 7 -44 6 -45 -1 -2 13 -43 30 -93 48 -134 141 -284 178 -286 10 0
12 -3 5 -5 -7 -3 -1 -15 17 -32 50 -48 80 -72 80 -65 0 4 7 -3 16 -15 16 -23
41 -31 28 -9 -4 7 -3 9 2 4 5 -5 9 -14 9 -20 0 -10 107 -77 130 -81 6 -1 16
-6 24 -10 10 -7 12 -6 6 4 -5 8 -3 11 6 8 8 -3 13 -11 11 -17 -1 -7 2 -10 7
-7 5 4 11 3 14 -1 2 -5 2 -2 0 6 -2 9 2 11 13 7 8 -3 19 -6 22 -6 4 0 1 -4 -6
-9 -9 -5 -3 -8 17 -9 17 0 31 3 31 8 0 5 -8 7 -17 4 -16 -5 -16 -4 1 10 10 8
15 19 12 24 -3 5 2 16 11 23 14 12 15 11 8 -11 -7 -23 -7 -23 9 -7 10 9 23 17
29 17 7 0 3 -7 -7 -15 -11 -8 -16 -15 -10 -15 5 1 23 12 39 26 19 17 22 22 9
15 -17 -8 -25 -7 -35 6 -12 14 -11 15 11 9 19 -6 21 -5 10 3 -10 7 -11 11 -2
11 6 0 12 7 12 16 0 11 6 14 20 9 11 -3 20 -2 20 4 0 5 -14 8 -30 6 -21 -3
-28 -1 -24 7 4 6 3 8 -4 4 -6 -3 -14 -1 -17 5 -4 5 -13 8 -20 5 -7 -2 -16 2
-19 10 -3 9 -10 13 -15 10 -5 -4 -12 0 -14 6 -4 10 -6 10 -6 1 -1 -7 -8 -10
-18 -7 -16 5 -16 4 -3 -6 13 -10 13 -11 -2 -6 -20 6 -22 -1 -9 -23 7 -10 11
-9 23 7 l14 21 13 -21 c7 -11 8 -17 2 -14 -7 5 -9 0 -5 -11 3 -10 2 -14 -3 -8
-13 15 -36 18 -27 3 5 -8 1 -7 -12 2 -18 14 -18 14 -4 -4 12 -16 12 -18 1 -11
-10 6 -12 4 -6 -5 6 -9 4 -11 -5 -5 -9 5 -11 4 -6 -3 4 -7 3 -19 -2 -28 -6
-11 -11 -13 -16 -5 -4 6 -2 11 3 11 6 0 11 5 11 11 0 8 -5 8 -15 -1 -12 -10
-15 -10 -15 0 0 8 -3 10 -6 7 -4 -4 -1 -15 7 -24 13 -17 13 -17 -6 -3 -19 14
-19 14 -5 -5 14 -18 14 -19 -2 -7 -10 8 -18 9 -22 3 -4 -6 -13 -8 -22 -4 -13
5 -12 7 2 18 9 6 14 17 10 23 -4 6 -1 24 7 39 8 15 12 33 10 39 -2 6 8 19 23
29 21 13 29 14 38 4 8 -9 8 -10 -1 -5 -13 7 -53 -13 -53 -27 0 -4 9 -3 20 3
11 6 25 8 30 5 6 -3 10 -1 10 4 0 6 8 11 17 11 10 0 0 9 -22 21 -22 12 -65 41
-96 65 -31 24 -60 40 -64 36 -5 -4 -5 -2 -1 5 3 6 0 15 -7 20 -22 13 -105 136
-132 194 -112 247 -54 536 146 724 182 171 419 245 682 212 117 -14 264 -76
366 -154 l45 -34 30 29 c17 15 52 47 78 70 l47 41 -57 45 c-206 164 -516 242
-792 199z m-470 -1399 c0 -8 -19 -13 -24 -6 -3 5 1 9 9 9 8 0 15 -2 15 -3z
m94 -2 c3 -5 -1 -9 -9 -9 -8 0 -12 4 -9 9 3 4 7 8 9 8 2 0 6 -4 9 -8z m43 -22
c2 -11 -1 -20 -5 -20 -4 0 -8 11 -8 25 0 28 8 24 13 -5z m48 -29 c-6 -5 -25
10 -25 20 0 5 6 4 14 -3 8 -7 12 -15 11 -17z m-229 4 c-1 -8 -5 -17 -8 -21 -5
-4 -4 16 1 34 3 9 9 -1 7 -13z m121 -10 c0 -8 -4 -15 -9 -15 -10 0 -11 14 -1
23 9 10 10 9 10 -8z m81 -7 c-3 -7 -15 -15 -27 -18 -12 -3 -22 -9 -21 -15 1
-5 -7 -11 -17 -12 -17 -3 -17 -2 0 5 10 4 18 12 17 17 0 6 8 11 20 13 11 2 18
8 15 13 -4 5 -1 9 5 9 7 0 10 -6 8 -12z m-174 -16 c2 -4 -4 -8 -14 -8 -10 0
-16 4 -14 8 3 4 9 8 14 8 5 0 11 -4 14 -8z m73 -19 c-4 -3 0 -11 8 -17 12 -9
11 -14 -5 -35 -11 -13 -20 -20 -20 -15 0 4 8 16 18 27 15 18 15 20 0 14 -11
-4 -15 -1 -13 11 5 23 4 22 12 22 3 0 3 -3 0 -7z m82 -27 c-19 -15 -22 -35 -9
-51 8 -9 6 -14 -4 -18 -19 -7 -28 6 -20 28 8 20 -16 17 -33 -5 -7 -9 -12 -10
-13 -4 0 6 7 17 15 24 8 7 15 9 15 4 1 -5 9 1 19 13 10 12 21 19 25 16 3 -4 6
2 7 13 0 13 2 15 6 5 3 -8 0 -19 -8 -25z m186 10 c8 4 15 1 15 -5 0 -6 -5 -10
-11 -8 -6 1 -14 -5 -16 -13 -3 -9 -1 -11 4 -5 11 14 40 17 48 6 3 -6 -3 -15
-14 -21 -13 -6 -18 -17 -15 -28 5 -14 3 -14 -10 2 -9 11 -16 25 -16 30 0 6 -5
3 -11 -7 -8 -14 -14 -15 -24 -7 -10 8 -15 8 -21 -1 -5 -8 -3 -10 7 -5 8 4 5 0
-6 -9 -19 -15 -19 -16 2 -12 11 1 28 9 37 16 11 9 16 10 16 2 0 -6 -7 -14 -16
-18 -8 -3 -13 -11 -10 -19 3 -7 -2 -18 -10 -24 -8 -7 -14 -8 -14 -3 0 6 -12
10 -27 9 -14 0 -27 5 -29 12 -2 8 0 8 3 1 4 -8 8 -7 14 2 8 12 11 11 19 -1 5
-8 10 -10 10 -4 0 5 -4 14 -10 20 -13 13 18 57 36 50 17 -6 39 30 24 39 -5 3
-10 12 -10 18 0 7 5 4 11 -5 5 -10 16 -15 24 -12z m-151 -104 c3 -5 -1 -9 -9
-9 -8 0 -12 4 -9 9 3 4 7 8 9 8 2 0 6 -4 9 -8z"/>
<path d="M1190 659 c0 -5 5 -7 10 -4 6 3 10 8 10 11 0 2 -4 4 -10 4 -5 0 -10
-5 -10 -11z"/>
<path d="M1381 1744 c-91 -24 -158 -90 -168 -163 l-5 -37 72 0 c70 1 72 2 85
32 19 45 92 71 148 52 59 -21 76 -95 34 -144 -20 -23 -34 -28 -88 -32 -35 -3
-66 -8 -70 -13 -3 -5 -4 -26 -3 -46 1 -21 3 -44 3 -51 1 -8 15 -12 39 -11 74
3 92 -1 122 -28 35 -32 45 -67 30 -104 -20 -47 -98 -74 -160 -55 -30 10 -70
45 -70 62 0 6 -6 14 -12 16 -11 4 -114 3 -141 -1 -5 0 -5 -16 -1 -33 14 -65
62 -119 134 -152 65 -29 216 -30 280 0 84 39 140 118 140 195 -1 67 -61 136
-134 155 l-29 7 38 18 c66 32 95 77 95 145 0 140 -170 234 -339 188z"/>
<path d="M1058 716 c-13 -10 -15 -15 -6 -24 9 -9 8 -16 -5 -29 -9 -10 -17 -12
-17 -6 0 6 6 13 13 16 6 2 8 8 4 13 -11 11 -28 -17 -22 -35 3 -7 2 -19 -2 -25
-5 -7 0 -3 11 9 10 11 23 19 28 17 17 -5 35 17 32 40 -1 13 -3 26 -3 31 -1 10
-14 8 -33 -7z m26 -4 c3 -5 -1 -9 -9 -9 -8 0 -12 4 -9 9 3 4 7 8 9 8 2 0 6 -4
9 -8z m1 -31 c3 -5 2 -12 -3 -15 -5 -3 -9 1 -9 9 0 17 3 19 12 6z"/>
<path d="M1308 676 c-10 -7 -18 -17 -18 -21 0 -4 7 -2 16 6 13 11 14 9 8 -17
-4 -16 -4 -26 0 -23 6 5 18 70 13 69 -1 0 -10 -7 -19 -14z"/>
<path d="M1260 660 c0 -5 5 -10 11 -10 5 0 7 5 4 10 -3 6 -8 10 -11 10 -2 0
-4 -4 -4 -10z"/>
<path d="M1390 660 c0 -5 5 -10 11 -10 5 0 7 5 4 10 -3 6 -8 10 -11 10 -2 0
-4 -4 -4 -10z"/>
<path d="M1340 646 c0 -2 11 -6 25 -8 13 -3 22 -1 19 3 -5 9 -44 13 -44 5z"/>
<path d="M1424 642 c4 -3 14 -7 22 -8 9 -1 13 0 10 4 -4 3 -14 7 -22 8 -9 1
-13 0 -10 -4z"/>
<path d="M1276 625 c-9 -26 -7 -32 5 -12 6 10 9 21 6 23 -2 3 -7 -2 -11 -11z"/>
<path d="M1535 621 c-3 -5 -2 -12 3 -15 5 -3 9 1 9 9 0 17 -3 19 -12 6z"/>
<path d="M1240 595 c-7 -9 -11 -17 -9 -20 3 -2 10 5 17 15 14 24 10 26 -8 5z"/>
<path d="M1290 600 c0 -5 5 -10 10 -10 6 0 10 5 10 10 0 6 -4 10 -10 10 -5 0
-10 -4 -10 -10z"/>
<path d="M1255 579 c-4 -6 -5 -12 -2 -15 2 -3 7 2 10 11 7 17 1 20 -8 4z"/>
<path d="M1315 581 c-3 -5 0 -13 6 -17 7 -4 9 -3 5 4 -3 5 0 13 6 15 9 4 10 6
1 6 -6 1 -14 -3 -18 -8z"/>
<path d="M1446 582 c-3 -5 1 -9 9 -9 8 0 12 4 9 9 -3 4 -7 8 -9 8 -2 0 -6 -4
-9 -8z"/>
<path d="M1190 570 c8 -5 20 -10 25 -10 6 0 3 5 -5 10 -8 5 -19 10 -25 10 -5
0 -3 -5 5 -10z"/>
<path d="M1339 553 c-13 -17 -13 -17 6 -3 11 8 22 16 24 17 2 2 0 3 -6 3 -6 0
-17 -8 -24 -17z"/>
<path d="M1230 551 c0 -7 -5 -9 -12 -5 -7 5 -8 3 -3 -5 5 -9 10 -10 18 -2 6 6
8 14 4 18 -4 3 -7 1 -7 -6z"/>
<path d="M1291 527 c-8 -10 -7 -14 2 -14 8 0 14 6 14 14 0 7 -1 13 -2 13 -2 0
-8 -6 -14 -13z"/>
<path d="M1246 522 c-3 -5 1 -9 9 -9 8 0 15 4 15 9 0 4 -4 8 -9 8 -6 0 -12 -4
-15 -8z"/>
<path d="M1376 498 c3 -5 10 -6 15 -3 13 9 11 12 -6 12 -8 0 -12 -4 -9 -9z"/>
</g>
</svg>
